<svg xmlns="http://www.w3.org/2000/svg" width="332" height="346" viewBox="0 0 332 346">
  <defs>
    <style>
      .cls-1 {
        fill: #cccccb;
      }

      .cls-1, .cls-2 {
        fill-rule: evenodd;
      }

      .cls-2 {
        fill: #1d3b7e;
      }
    </style>
  </defs>
  <path id="reading-list" class="cls-1" d="M161.936,89.479a6.372,6.372,0,0,0-5.34-2.546H141.974V74.81a7.7,7.7,0,0,0-7.375-7.905H76.606c-1.716-.182-5.385-1-6.522-2.174a22.97,22.97,0,0,0-2.6-2.464,20.036,20.036,0,0,1-2.071-2.1l-0.086-.088c-3.508-3.4-7-4.309-9-4.151H10.578A7.6,7.6,0,0,0,3,63.5v91.973c0,0.188.017,0.373,0.032,0.557a1.046,1.046,0,0,0,.01.177A7.58,7.58,0,0,0,10.55,163H134.68a7.586,7.586,0,0,0,7.555-7.09l20.3-60.595A6.248,6.248,0,0,0,161.936,89.479ZM110.979,92.3a1.1,1.1,0,0,1,.059-0.365h25.88a1.133,1.133,0,0,1,.053.3v36.751c-0.112-.063-0.219-0.128-0.317-0.193L125.5,116.974a2.558,2.558,0,0,0-1.845-.783,2.5,2.5,0,0,0-1.827.825l-10.373,11.49c-0.132.07-.3,0.147-0.472,0.219V92.3h0ZM10.578,60.928H56.3a2.546,2.546,0,0,0,.363-0.026c0.3-.04,2.4.079,5.144,2.725a20.594,20.594,0,0,0,2.657,2.624,20.12,20.12,0,0,1,2.042,1.97c3.035,3.12,9.918,3.686,9.982,3.686h57.923a2.742,2.742,0,0,1,2.566,2.85V86.922H110.694c-0.036,0-.069.011-0.105,0.012H32.551c-3.549,0-7.042,2.543-8.9,6.476a2.452,2.452,0,0,0-.109.273L8,140.117V63.506A2.588,2.588,0,0,1,10.578,60.928Zm123.8,97.066H10.579a2.544,2.544,0,0,1-.515-0.052,0.192,0.192,0,0,1-.032-0.009,2.542,2.542,0,0,1-.443-0.138c-0.021-.008-0.039-0.02-0.059-0.029a2.706,2.706,0,0,1-.37-0.2c-0.024-.015-0.045-0.033-0.069-0.05a2.569,2.569,0,0,1-.306-0.252c-0.024-.023-0.047-0.049-0.07-0.073a2.544,2.544,0,0,1-.239-0.291c-0.024-.033-0.046-0.067-0.068-0.1a2.525,2.525,0,0,1-.169-0.309c-0.02-.044-0.04-0.088-0.058-0.133a2.586,2.586,0,0,1-.1-0.316c-0.014-.055-0.029-0.11-0.039-0.166-0.007-.039-0.007-0.079-0.012-0.118l20.2-60.335c1.012-2.058,2.773-3.484,4.316-3.484h73.461c-0.007.122-.031,0.238-0.031,0.363v37.9a3.656,3.656,0,0,0,2.316,3.58c2.453,0.944,5.936-.891,6.643-1.675l8.781-9.726,9.528,10.091a10.006,10.006,0,0,0,3.726,1.87v21.07a2.591,2.591,0,0,1-2.589,2.582h-0.011ZM157.8,93.683l-15.824,47.273V130.28c0-.028.006-0.05,0.006-0.079V92.3c0-.025-0.006-0.048-0.006-0.073v-0.29H156.6a1.582,1.582,0,0,1,1.258.428,1.559,1.559,0,0,1-.058,1.318h0ZM74.985,48.207a5.029,5.029,0,0,0,6.99-.01l10.3-10.021a2.251,2.251,0,0,0-3.135-3.232l-10.3,10.012a0.538,0.538,0,0,1-.741.009L67.787,34.934a2.251,2.251,0,0,0-3.135,3.232h0Zm3.5-21.507a3,3,0,0,0,3-3V23.671a3,3,0,1,0-6,0h0V23.7a3,3,0,0,0,3,3h0Zm0-9.666a3,3,0,0,0,3-3V14a3,3,0,0,0-3-3h0a3,3,0,0,0-3,3v0.036a3,3,0,0,0,3,3h0V17.034Zm0,19.332a3,3,0,0,0,3-3V33.337a3,3,0,1,0-6,0v0.031a3,3,0,0,0,3,3h0V36.366Z"/>
  <path id="reading-list-2" data-name="reading-list" class="cls-2" d="M327.936,89.479a6.372,6.372,0,0,0-5.34-2.546H307.974V74.81a7.7,7.7,0,0,0-7.375-7.905H242.606c-1.716-.182-5.385-1-6.522-2.174a22.99,22.99,0,0,0-2.6-2.464,20.06,20.06,0,0,1-2.071-2.1l-0.086-.088c-3.509-3.4-7-4.309-9-4.151H176.578A7.6,7.6,0,0,0,169,63.5v91.973c0,0.188.017,0.373,0.032,0.557a1.045,1.045,0,0,0,.01.177A7.581,7.581,0,0,0,176.55,163H300.68a7.586,7.586,0,0,0,7.555-7.09l20.3-60.595A6.248,6.248,0,0,0,327.936,89.479ZM276.979,92.3a1.1,1.1,0,0,1,.059-0.365h25.88a1.133,1.133,0,0,1,.053.3v36.751c-0.112-.063-0.219-0.128-0.317-0.193L291.5,116.974a2.558,2.558,0,0,0-1.845-.783,2.5,2.5,0,0,0-1.827.825l-10.373,11.49c-0.132.07-.3,0.147-0.472,0.219V92.3h0Zm-100.4-31.372H222.3a2.541,2.541,0,0,0,.363-0.026c0.3-.04,2.4.079,5.144,2.725a20.655,20.655,0,0,0,2.657,2.624,20.2,20.2,0,0,1,2.042,1.97c3.034,3.12,9.918,3.686,9.982,3.686h57.923a2.742,2.742,0,0,1,2.566,2.85V86.922H276.694c-0.036,0-.069.011-0.105,0.012H198.551c-3.549,0-7.041,2.543-8.9,6.476a2.433,2.433,0,0,0-.109.273L174,140.117V63.506A2.587,2.587,0,0,1,176.578,60.928Zm123.8,97.066h-123.8a2.549,2.549,0,0,1-.515-0.052,0.192,0.192,0,0,1-.032-0.009,2.581,2.581,0,0,1-.443-0.138c-0.021-.008-0.039-0.02-0.059-0.029a2.751,2.751,0,0,1-.37-0.2c-0.024-.015-0.045-0.033-0.069-0.05a2.625,2.625,0,0,1-.306-0.252c-0.024-.023-0.047-0.049-0.07-0.073a2.559,2.559,0,0,1-.238-0.291c-0.024-.033-0.046-0.067-0.068-0.1a2.436,2.436,0,0,1-.169-0.309c-0.02-.044-0.04-0.088-0.058-0.133a2.364,2.364,0,0,1-.1-0.316c-0.014-.055-0.029-0.11-0.039-0.166-0.007-.039-0.007-0.079-0.012-0.118l20.2-60.335c1.012-2.058,2.773-3.484,4.316-3.484h73.461c-0.007.122-.031,0.238-0.031,0.363v37.9a3.656,3.656,0,0,0,2.316,3.58c2.453,0.944,5.936-.891,6.643-1.675l8.781-9.726,9.528,10.091a10.006,10.006,0,0,0,3.726,1.87v21.07a2.591,2.591,0,0,1-2.589,2.582h-0.011ZM323.8,93.683l-15.824,47.273V130.28c0-.028.006-0.05,0.006-0.079V92.3c0-.025-0.006-0.048-0.006-0.073v-0.29H322.6a1.582,1.582,0,0,1,1.258.428,1.559,1.559,0,0,1-.058,1.318h0ZM240.985,48.207a5.029,5.029,0,0,0,6.99-.01l10.3-10.021a2.251,2.251,0,1,0-3.134-3.232l-10.3,10.012a0.538,0.538,0,0,1-.741.009L233.786,34.934a2.251,2.251,0,1,0-3.134,3.232h0Zm3.5-21.507a3,3,0,0,0,3-3V23.671a3,3,0,1,0-6,0h0V23.7a3,3,0,0,0,3,3h0Zm0-9.666a3,3,0,0,0,3-3V14a3,3,0,0,0-3-3h0a3,3,0,0,0-3,3v0.036a3,3,0,0,0,3,3h0V17.034Zm0,19.332a3,3,0,0,0,3-3V33.337a3,3,0,1,0-6,0v0.031a3,3,0,0,0,3,3h0V36.366Z"/>
  <path id="no-results" class="cls-1" d="M138.5,182H27.5a7.52,7.52,0,0,0-7.5,7.523V329.963a7.49,7.49,0,0,0,1.846,4.9l1.344,1.54L43.5,324.813l23.144,13.121,16.892-11.96L101.518,338l19.146-13.14,21.916,11.672,1.307-1.35A7.471,7.471,0,0,0,146,329.955V189.525A7.52,7.52,0,0,0,138.5,182ZM141,329.954c0,0.018,0,.036,0,0.054l-20.663-11-18.854,12.94L83.46,319.893,66.352,332.006,43.5,319.047,25,329.6V189.525a2.507,2.507,0,0,1,2.5-2.507h111a2.507,2.507,0,0,1,2.5,2.507V329.954ZM99.831,283.106a27.02,27.02,0,1,0-3.536,3.546l19.454,19.514,0.015,0.015a2.5,2.5,0,0,0,3.521-3.561Zm-20.767,4.782a22.068,22.068,0,1,1,22-22.068A22.059,22.059,0,0,1,79.063,287.888ZM44.5,213h37a2.508,2.508,0,0,0,0-5.015h-37A2.508,2.508,0,0,0,44.5,213Zm77,9h-77a2.508,2.508,0,0,0,0,5.016h77A2.508,2.508,0,0,0,121.5,222ZM83.225,270.523a9.6,9.6,0,0,0-7.45,0c-2.065.871-2.692,3.01-1.825,3.762,0.859,0.772,2.268.608,3.368,0.182a5.627,5.627,0,0,1,4.364,0c1.1,0.426,2.509.59,3.368-.182C85.917,273.532,85.29,271.394,83.225,270.523ZM86,256.731a2.508,2.508,0,1,0,2.5,2.507A2.5,2.5,0,0,0,86,256.731Zm-11.5,2.507a2.5,2.5,0,1,0-2.5,2.508A2.5,2.5,0,0,0,74.5,259.238Z"/>
  <path id="no-results-2" data-name="no-results" class="cls-2" d="M304.5,182h-111a7.52,7.52,0,0,0-7.5,7.523V329.963a7.489,7.489,0,0,0,1.846,4.9l1.343,1.54,20.315-11.59,23.144,13.121,16.893-11.96L267.518,338l19.146-13.14,21.916,11.672,1.307-1.35A7.471,7.471,0,0,0,312,329.955V189.525A7.52,7.52,0,0,0,304.5,182ZM307,329.954c0,0.018,0,.036,0,0.054l-20.663-11-18.854,12.94-18.023-12.051-17.107,12.113L209.5,319.047,191,329.6V189.525a2.507,2.507,0,0,1,2.5-2.507h111a2.507,2.507,0,0,1,2.5,2.507V329.954Zm-41.169-46.848a27.023,27.023,0,1,0-3.536,3.546l19.454,19.514,0.015,0.015a2.5,2.5,0,0,0,3.521-3.561Zm-20.768,4.782a22.068,22.068,0,1,1,22-22.068A22.059,22.059,0,0,1,245.063,287.888ZM210.5,213h37a2.508,2.508,0,0,0,0-5.015h-37A2.508,2.508,0,0,0,210.5,213Zm77,9h-77a2.508,2.508,0,0,0,0,5.016h77A2.508,2.508,0,0,0,287.5,222Zm-38.275,48.525a9.6,9.6,0,0,0-7.45,0c-2.065.871-2.692,3.01-1.825,3.762,0.859,0.772,2.268.608,3.368,0.182a5.627,5.627,0,0,1,4.364,0c1.1,0.426,2.509.59,3.368-.182C251.917,273.532,251.29,271.394,249.225,270.523ZM252,256.731a2.508,2.508,0,1,0,2.5,2.507A2.5,2.5,0,0,0,252,256.731Zm-11.5,2.507a2.5,2.5,0,1,0-2.5,2.508A2.5,2.5,0,0,0,240.5,259.238Z"/>
</svg>
